<svg width="223" height="215" viewBox="0 0 223 215" fill="none" xmlns="http://www.w3.org/2000/svg">
<g filter="url(#filter0_d_1203_7)">
<g filter="url(#filter1_d_1203_7)">
<rect x="27" y="24" width="169.117" height="160" rx="9.11681" fill="white"/>
<rect x="27.2279" y="24.2279" width="168.661" height="159.544" rx="8.88889" stroke="#F8F9FA" stroke-width="0.45584"/>
</g>
<mask id="mask0_1203_7" style="mask-type:luminance" maskUnits="userSpaceOnUse" x="27" y="24" width="170" height="160">
<rect x="27.2279" y="24.2279" width="168.661" height="159.544" rx="8.88889" fill="white" stroke="white" stroke-width="0.45584"/>
</mask>
<g mask="url(#mask0_1203_7)">
</g>
<path d="M45.1282 50.4735C44.7287 50.4735 44.3675 50.4051 44.0447 50.2683C43.7273 50.1314 43.4755 49.9344 43.2895 49.6772C43.1034 49.42 43.0076 49.1163 43.0021 48.766H44.2335C44.2499 49.0014 44.332 49.1874 44.4797 49.3242C44.633 49.4611 44.8409 49.5295 45.1036 49.5295C45.3717 49.5295 45.5824 49.4665 45.7357 49.3407C45.8889 49.2093 45.9655 49.0397 45.9655 48.8317C45.9655 48.6621 45.9135 48.5225 45.8095 48.4131C45.7056 48.3036 45.5742 48.2188 45.4155 48.1586C45.2623 48.0929 45.0489 48.0218 44.7752 47.9452C44.4031 47.8357 44.0994 47.729 43.8641 47.625C43.6342 47.5156 43.4345 47.3541 43.2648 47.1407C43.1006 46.9218 43.0186 46.6318 43.0186 46.2706C43.0186 45.9313 43.1034 45.6358 43.273 45.384C43.4427 45.1323 43.6807 44.9408 43.9872 44.8094C44.2937 44.6726 44.6439 44.6042 45.0379 44.6042C45.629 44.6042 46.1078 44.7492 46.4745 45.0393C46.8466 45.3238 47.0518 45.7233 47.0901 46.2377H45.826C45.815 46.0407 45.7302 45.8793 45.5715 45.7534C45.4183 45.6221 45.213 45.5564 44.9558 45.5564C44.7315 45.5564 44.5509 45.6139 44.4141 45.7288C44.2827 45.8437 44.217 46.0106 44.217 46.2295C44.217 46.3828 44.2663 46.5114 44.3648 46.6153C44.4688 46.7139 44.5946 46.7959 44.7424 46.8616C44.8956 46.9218 45.1091 46.993 45.3827 47.075C45.7548 47.1845 46.0585 47.2939 46.2939 47.4034C46.5292 47.5128 46.7317 47.677 46.9013 47.8959C47.071 48.1148 47.1558 48.4021 47.1558 48.7578C47.1558 49.0643 47.0764 49.3489 46.9177 49.6116C46.759 49.8742 46.5265 50.0849 46.22 50.2436C45.9135 50.3969 45.5496 50.4735 45.1282 50.4735ZM49.4902 46.8124V49.0123C49.4902 49.1655 49.5257 49.2777 49.5969 49.3489C49.6735 49.4145 49.7994 49.4474 49.9745 49.4474H50.5081V50.416H49.7857C48.817 50.416 48.3327 49.9454 48.3327 49.0041V46.8124H47.7909V45.8683H48.3327V44.7437H49.4902V45.8683H50.5081V46.8124H49.4902ZM55.6278 45.8683V50.416H54.4704V49.8414C54.3226 50.0384 54.1284 50.1944 53.8876 50.3093C53.6523 50.4188 53.395 50.4735 53.1159 50.4735C52.7602 50.4735 52.4456 50.3996 52.1719 50.2518C51.8983 50.0986 51.6821 49.877 51.5234 49.5869C51.3702 49.2914 51.2936 48.9412 51.2936 48.5362V45.8683H52.4428V48.372C52.4428 48.7332 52.5331 49.0123 52.7137 49.2093C52.8943 49.4009 53.1406 49.4966 53.4525 49.4966C53.7699 49.4966 54.0189 49.4009 54.1995 49.2093C54.3801 49.0123 54.4704 48.7332 54.4704 48.372V45.8683H55.6278ZM56.4662 48.1258C56.4662 47.6661 56.5565 47.2584 56.7371 46.9027C56.9232 46.5469 57.1749 46.2733 57.4923 46.0818C57.8097 45.8902 58.1627 45.7945 58.5513 45.7945C58.8468 45.7945 59.1286 45.8601 59.3968 45.9915C59.6649 46.1173 59.8783 46.287 60.037 46.5004V44.3415H61.2027V50.416H60.037V49.7429C59.8948 49.9673 59.695 50.1479 59.4378 50.2847C59.1806 50.4215 58.8823 50.4899 58.543 50.4899C58.16 50.4899 57.8097 50.3914 57.4923 50.1944C57.1749 49.9974 56.9232 49.721 56.7371 49.3653C56.5565 49.0041 56.4662 48.5909 56.4662 48.1258ZM60.0453 48.1422C60.0453 47.8631 59.9905 47.625 59.8811 47.428C59.7716 47.2255 59.6239 47.0723 59.4378 46.9683C59.2517 46.8589 59.052 46.8041 58.8386 46.8041C58.6251 46.8041 58.4281 46.8561 58.2475 46.9601C58.0669 47.0641 57.9192 47.2173 57.8043 47.4198C57.6948 47.6168 57.6401 47.8521 57.6401 48.1258C57.6401 48.3994 57.6948 48.6402 57.8043 48.8481C57.9192 49.0506 58.0669 49.2066 58.2475 49.316C58.4336 49.4255 58.6306 49.4802 58.8386 49.4802C59.052 49.4802 59.2517 49.4282 59.4378 49.3242C59.6239 49.2148 59.7716 49.0616 59.8811 48.8646C59.9905 48.6621 60.0453 48.4213 60.0453 48.1422ZM66.6758 45.8683L63.8602 52.5667H62.637L63.6221 50.3011L61.7998 45.8683H63.0885L64.2624 49.0451L65.4527 45.8683H66.6758ZM71.1475 49.3571L72.2967 45.8683H73.5198L71.837 50.416H70.4416L68.767 45.8683H69.9983L71.1475 49.3571ZM75.9056 50.4899C75.5335 50.4899 75.1996 50.4242 74.9041 50.2929C74.6086 50.1561 74.3733 49.9727 74.1982 49.7429C74.0285 49.513 73.9355 49.2586 73.9191 48.9795H75.0765C75.0984 49.1546 75.1832 49.2996 75.331 49.4145C75.4842 49.5295 75.673 49.5869 75.8974 49.5869C76.1163 49.5869 76.2859 49.5431 76.4063 49.4556C76.5322 49.368 76.5951 49.2558 76.5951 49.119C76.5951 48.9713 76.5185 48.8618 76.3653 48.7907C76.2175 48.7141 75.9795 48.632 75.6511 48.5444C75.3118 48.4623 75.0327 48.3775 74.8138 48.2899C74.6004 48.2024 74.4143 48.0683 74.2556 47.8877C74.1024 47.7071 74.0258 47.4636 74.0258 47.1571C74.0258 46.9054 74.0969 46.6755 74.2392 46.4676C74.387 46.2596 74.5949 46.0955 74.8631 45.9751C75.1367 45.8547 75.4568 45.7945 75.8235 45.7945C76.3653 45.7945 76.7976 45.9313 77.1205 46.2049C77.4434 46.4731 77.6212 46.837 77.6541 47.2967H76.5541C76.5377 47.1161 76.4611 46.9738 76.3242 46.8698C76.1929 46.7604 76.015 46.7056 75.7907 46.7056C75.5827 46.7056 75.4213 46.744 75.3064 46.8206C75.1969 46.8972 75.1422 47.0039 75.1422 47.1407C75.1422 47.2939 75.2188 47.4116 75.372 47.4937C75.5253 47.5703 75.7633 47.6497 76.0862 47.7317C76.4145 47.8138 76.6854 47.8987 76.8989 47.9862C77.1123 48.0738 77.2956 48.2106 77.4488 48.3967C77.6075 48.5772 77.6896 48.818 77.6951 49.119C77.6951 49.3817 77.6212 49.617 77.4735 49.825C77.3312 50.0329 77.1232 50.1971 76.8496 50.3175C76.5814 50.4324 76.2668 50.4899 75.9056 50.4899ZM84.5839 46.4101C84.4526 46.1693 84.272 45.986 84.0422 45.8601C83.8123 45.7343 83.5442 45.6713 83.2377 45.6713C82.8984 45.6713 82.5974 45.748 82.3347 45.9012C82.0721 46.0544 81.8668 46.2733 81.7191 46.5579C81.5713 46.8425 81.4974 47.1708 81.4974 47.5429C81.4974 47.926 81.5713 48.2598 81.7191 48.5444C81.8723 48.829 82.083 49.0479 82.3512 49.2011C82.6193 49.3543 82.9312 49.431 83.287 49.431C83.7248 49.431 84.0832 49.316 84.3623 49.0862C84.6414 48.8509 84.8247 48.5253 84.9123 48.1093H82.9422V47.231H86.0451V48.2325C85.9685 48.632 85.8043 49.0014 85.5526 49.3407C85.3008 49.68 84.9752 49.9536 84.5757 50.1615C84.1817 50.364 83.7384 50.4653 83.2459 50.4653C82.6932 50.4653 82.1925 50.3421 81.7437 50.0959C81.3004 49.8441 80.9502 49.4966 80.693 49.0534C80.4412 48.6101 80.3154 48.1066 80.3154 47.5429C80.3154 46.9793 80.4412 46.4758 80.693 46.0325C80.9502 45.5838 81.3004 45.2363 81.7437 44.99C82.1925 44.7383 82.6905 44.6124 83.2377 44.6124C83.8835 44.6124 84.4444 44.7711 84.9205 45.0885C85.3966 45.4004 85.725 45.841 85.9056 46.4101H84.5839ZM88.0446 46.5743C88.1924 46.3335 88.3839 46.1447 88.6192 46.0079C88.86 45.8711 89.1336 45.8027 89.4401 45.8027V47.0094H89.1364C88.7752 47.0094 88.5015 47.0942 88.3155 47.2638C88.1349 47.4335 88.0446 47.729 88.0446 48.1504V50.416H86.8954V45.8683H88.0446V46.5743ZM92.2335 50.4899C91.7957 50.4899 91.4017 50.3941 91.0514 50.2026C90.7012 50.0056 90.4248 49.7292 90.2224 49.3735C90.0253 49.0178 89.9268 48.6073 89.9268 48.1422C89.9268 47.677 90.0281 47.2666 90.2306 46.9109C90.4385 46.5551 90.7204 46.2815 91.0761 46.09C91.4318 45.893 91.8285 45.7945 92.2663 45.7945C92.7041 45.7945 93.1009 45.893 93.4566 46.09C93.8123 46.2815 94.0914 46.5551 94.2939 46.9109C94.5019 47.2666 94.6059 47.677 94.6059 48.1422C94.6059 48.6073 94.4991 49.0178 94.2857 49.3735C94.0778 49.7292 93.7932 50.0056 93.432 50.2026C93.0763 50.3941 92.6768 50.4899 92.2335 50.4899ZM92.2335 49.4884C92.4415 49.4884 92.6357 49.4392 92.8163 49.3407C93.0024 49.2367 93.1502 49.0835 93.2596 48.881C93.3691 48.6785 93.4238 48.4322 93.4238 48.1422C93.4238 47.7099 93.3089 47.3788 93.079 47.1489C92.8546 46.9136 92.5783 46.7959 92.2499 46.7959C91.9216 46.7959 91.6452 46.9136 91.4208 47.1489C91.2019 47.3788 91.0925 47.7099 91.0925 48.1422C91.0925 48.5745 91.1992 48.9083 91.4126 49.1437C91.6315 49.3735 91.9052 49.4884 92.2335 49.4884ZM101.753 45.8683L100.423 50.416H99.1839L98.3548 47.2392L97.5257 50.416H96.2779L94.9399 45.8683H96.1056L96.91 49.3325L97.7801 45.8683H98.995L99.8488 49.3242L100.653 45.8683H101.753ZM103.713 46.8124V49.0123C103.713 49.1655 103.749 49.2777 103.82 49.3489C103.896 49.4145 104.022 49.4474 104.197 49.4474H104.731V50.416H104.009C103.04 50.416 102.556 49.9454 102.556 49.0041V46.8124H102.014V45.8683H102.556V44.7437H103.713V45.8683H104.731V46.8124H103.713ZM108.119 45.8027C108.463 45.8027 108.77 45.8793 109.038 46.0325C109.306 46.1803 109.514 46.4019 109.662 46.6974C109.815 46.9875 109.892 47.3377 109.892 47.7482V50.416H108.743V47.9041C108.743 47.5429 108.652 47.2666 108.472 47.075C108.291 46.878 108.045 46.7795 107.733 46.7795C107.415 46.7795 107.164 46.878 106.978 47.075C106.797 47.2666 106.707 47.5429 106.707 47.9041V50.416H105.558V44.3415H106.707V46.4348C106.855 46.2377 107.052 46.0845 107.298 45.9751C107.544 45.8601 107.818 45.8027 108.119 45.8027Z" fill="#05004E"/>
<path d="M48.0345 119.081V121.194C48.0345 121.43 47.962 121.619 47.817 121.761C47.672 121.9 47.4804 121.97 47.2424 121.97C47.0016 121.97 46.8087 121.899 46.6636 121.757C46.5186 121.612 46.4461 121.415 46.4461 121.166H46.8196C46.8223 121.305 46.8579 121.419 46.9263 121.506C46.9975 121.594 47.1028 121.638 47.2424 121.638C47.3819 121.638 47.4859 121.597 47.5543 121.515C47.6227 121.43 47.6569 121.323 47.6569 121.194V119.081H48.0345ZM48.6308 120.809C48.6308 120.579 48.6773 120.378 48.7703 120.205C48.8634 120.03 48.9906 119.895 49.152 119.799C49.3162 119.703 49.4982 119.655 49.6979 119.655C49.8949 119.655 50.0659 119.698 50.211 119.782C50.356 119.867 50.4641 119.974 50.5352 120.103V119.692H50.9128V121.941H50.5352V121.523C50.4613 121.654 50.3505 121.764 50.2028 121.851C50.0577 121.936 49.8881 121.978 49.6938 121.978C49.4941 121.978 49.3135 121.929 49.152 121.831C48.9906 121.732 48.8634 121.594 48.7703 121.416C48.6773 121.238 48.6308 121.036 48.6308 120.809ZM50.5352 120.813C50.5352 120.643 50.501 120.495 50.4326 120.369C50.3642 120.244 50.2712 120.148 50.1535 120.082C50.0386 120.014 49.9113 119.98 49.7718 119.98C49.6322 119.98 49.505 120.012 49.3901 120.078C49.2752 120.144 49.1835 120.239 49.1151 120.365C49.0467 120.491 49.0125 120.639 49.0125 120.809C49.0125 120.981 49.0467 121.131 49.1151 121.26C49.1835 121.386 49.2752 121.483 49.3901 121.551C49.505 121.617 49.6322 121.65 49.7718 121.65C49.9113 121.65 50.0386 121.617 50.1535 121.551C50.2712 121.483 50.3642 121.386 50.4326 121.26C50.501 121.131 50.5352 120.982 50.5352 120.813ZM52.6399 119.651C52.9135 119.651 53.1351 119.735 53.3048 119.902C53.4744 120.066 53.5593 120.304 53.5593 120.616V121.941H53.1899V120.669C53.1899 120.445 53.1338 120.274 53.0216 120.156C52.9094 120.036 52.7562 119.975 52.5619 119.975C52.3649 119.975 52.2075 120.037 52.0899 120.16C51.975 120.283 51.9175 120.462 51.9175 120.698V121.941H51.544V119.692H51.9175V120.012C51.9914 119.897 52.0912 119.808 52.2171 119.746C52.3457 119.683 52.4866 119.651 52.6399 119.651Z" fill="#7B91B0"/>
<rect x="50.792" y="71.7539" width="6.56703" height="41.9024" rx="1.64176" fill="#FFCF00"/>
<rect x="42.5835" y="81.3652" width="6.56703" height="32.2917" rx="1.64176" fill="#1C5CFF"/>
<path d="M68.732 119.077V119.38H67.4884V120.345H68.498V120.649H67.4884V121.938H67.1149V119.077H68.732ZM71.2353 120.727C71.2353 120.798 71.2312 120.873 71.223 120.952H69.4253C69.4389 121.174 69.5142 121.348 69.651 121.474C69.7905 121.597 69.9588 121.658 70.1558 121.658C70.3173 121.658 70.4514 121.621 70.5581 121.548C70.6675 121.471 70.7441 121.37 70.7879 121.244H71.1901C71.1299 121.46 71.0096 121.637 70.829 121.773C70.6484 121.907 70.424 121.974 70.1558 121.974C69.9424 121.974 69.7509 121.927 69.5812 121.831C69.4143 121.735 69.283 121.6 69.1872 121.424C69.0914 121.247 69.0435 121.041 69.0435 120.809C69.0435 120.576 69.0901 120.372 69.1831 120.197C69.2761 120.022 69.4061 119.888 69.573 119.795C69.7427 119.699 69.9369 119.651 70.1558 119.651C70.3693 119.651 70.5581 119.698 70.7222 119.791C70.8864 119.884 71.0123 120.013 71.0998 120.177C71.1901 120.338 71.2353 120.521 71.2353 120.727ZM70.8495 120.649C70.8495 120.506 70.818 120.385 70.7551 120.283C70.6921 120.179 70.606 120.101 70.4965 120.049C70.3898 119.995 70.2708 119.967 70.1394 119.967C69.9506 119.967 69.7892 120.028 69.6551 120.148C69.5238 120.268 69.4485 120.435 69.4294 120.649H70.8495ZM72.1018 120.107C72.1784 119.973 72.2906 119.863 72.4384 119.779C72.5861 119.694 72.7544 119.651 72.9432 119.651C73.1457 119.651 73.3276 119.699 73.4891 119.795C73.6505 119.891 73.7778 120.026 73.8708 120.201C73.9638 120.374 74.0103 120.575 74.0103 120.805C74.0103 121.032 73.9638 121.234 73.8708 121.412C73.7778 121.59 73.6492 121.728 73.485 121.827C73.3235 121.925 73.1429 121.974 72.9432 121.974C72.7489 121.974 72.5779 121.932 72.4302 121.847C72.2851 121.762 72.1757 121.654 72.1018 121.523V121.938H71.7283V118.9H72.1018V120.107ZM73.6286 120.805C73.6286 120.635 73.5944 120.487 73.526 120.361C73.4576 120.236 73.3646 120.14 73.2469 120.074C73.132 120.008 73.0048 119.976 72.8652 119.976C72.7284 119.976 72.6012 120.01 72.4835 120.078C72.3686 120.144 72.2756 120.241 72.2044 120.37C72.136 120.495 72.1018 120.642 72.1018 120.809C72.1018 120.978 72.136 121.128 72.2044 121.256C72.2756 121.382 72.3686 121.479 72.4835 121.548C72.6012 121.613 72.7284 121.646 72.8652 121.646C73.0048 121.646 73.132 121.613 73.2469 121.548C73.3646 121.479 73.4576 121.382 73.526 121.256C73.5944 121.128 73.6286 120.977 73.6286 120.805Z" fill="#7B91B0"/>
<rect x="71.3135" y="75.5977" width="6.56703" height="38.0581" rx="1.64176" fill="#FFCF00"/>
<rect x="63.105" y="85.5938" width="6.56703" height="28.0631" rx="1.64176" fill="#1C5CFF"/>
<path d="M90.5386 119.101V121.941H90.1651V119.824L89.2211 121.941H88.9585L88.0103 119.819V121.941H87.6368V119.101H88.0391L89.0898 121.449L90.1405 119.101H90.5386ZM91.0325 120.809C91.0325 120.579 91.079 120.378 91.1721 120.205C91.2651 120.03 91.3923 119.895 91.5538 119.799C91.718 119.703 91.8999 119.655 92.0997 119.655C92.2967 119.655 92.4677 119.698 92.6127 119.782C92.7577 119.867 92.8658 119.974 92.937 120.103V119.692H93.3146V121.941H92.937V121.523C92.8631 121.654 92.7523 121.764 92.6045 121.851C92.4595 121.936 92.2898 121.978 92.0956 121.978C91.8958 121.978 91.7152 121.929 91.5538 121.831C91.3923 121.732 91.2651 121.594 91.1721 121.416C91.079 121.238 91.0325 121.036 91.0325 120.809ZM92.937 120.813C92.937 120.643 92.9028 120.495 92.8343 120.369C92.7659 120.244 92.6729 120.148 92.5552 120.082C92.4403 120.014 92.3131 119.98 92.1735 119.98C92.034 119.98 91.9068 120.012 91.7918 120.078C91.6769 120.144 91.5852 120.239 91.5168 120.365C91.4484 120.491 91.4142 120.639 91.4142 120.809C91.4142 120.981 91.4484 121.131 91.5168 121.26C91.5852 121.386 91.6769 121.483 91.7918 121.551C91.9068 121.617 92.034 121.65 92.1735 121.65C92.3131 121.65 92.4403 121.617 92.5552 121.551C92.6729 121.483 92.7659 121.386 92.8343 121.26C92.9028 121.131 92.937 120.982 92.937 120.813ZM94.3192 120.057C94.3849 119.929 94.4779 119.829 94.5983 119.758C94.7215 119.687 94.8706 119.651 95.0457 119.651V120.037H94.9472C94.5286 120.037 94.3192 120.264 94.3192 120.718V121.941H93.9457V119.692H94.3192V120.057Z" fill="#7B91B0"/>
<rect x="91.8364" y="65.9883" width="6.56703" height="47.6688" rx="1.64176" fill="#FFCF00"/>
<rect x="83.6274" y="89.8203" width="6.56703" height="23.8344" rx="1.64176" fill="#1C5CFF"/>
<path d="M109.851 121.301H108.604L108.374 121.938H107.98L109.014 119.093H109.445L110.475 121.938H110.081L109.851 121.301ZM109.745 120.998L109.227 119.553L108.71 120.998H109.745ZM111.299 120.103C111.373 119.974 111.483 119.868 111.628 119.783C111.776 119.695 111.947 119.651 112.141 119.651C112.341 119.651 112.521 119.699 112.683 119.795C112.847 119.891 112.975 120.026 113.068 120.201C113.161 120.374 113.208 120.575 113.208 120.805C113.208 121.032 113.161 121.234 113.068 121.412C112.975 121.59 112.847 121.728 112.683 121.827C112.521 121.925 112.341 121.974 112.141 121.974C111.949 121.974 111.78 121.932 111.632 121.847C111.487 121.76 111.376 121.652 111.299 121.523V123.005H110.926V119.688H111.299V120.103ZM112.826 120.805C112.826 120.635 112.792 120.487 112.724 120.361C112.655 120.236 112.562 120.14 112.445 120.074C112.33 120.008 112.202 119.976 112.063 119.976C111.926 119.976 111.799 120.01 111.681 120.078C111.566 120.144 111.473 120.241 111.402 120.37C111.334 120.495 111.299 120.642 111.299 120.809C111.299 120.978 111.334 121.128 111.402 121.256C111.473 121.382 111.566 121.479 111.681 121.548C111.799 121.613 111.926 121.646 112.063 121.646C112.202 121.646 112.33 121.613 112.445 121.548C112.562 121.479 112.655 121.382 112.724 121.256C112.792 121.128 112.826 120.977 112.826 120.805ZM114.073 120.054C114.139 119.925 114.232 119.825 114.352 119.754C114.475 119.683 114.624 119.647 114.8 119.647V120.033H114.701C114.282 120.033 114.073 120.26 114.073 120.714V121.938H113.7V119.688H114.073V120.054Z" fill="#7B91B0"/>
<rect x="111.539" y="75.5977" width="6.56703" height="38.0581" rx="1.64176" fill="#FFCF00"/>
<rect x="104.151" y="81.3633" width="6.56703" height="32.2917" rx="1.64176" fill="#1C5CFF"/>
<path d="M130.351 119.101V121.941H129.978V119.824L129.034 121.941H128.771L127.823 119.819V121.941H127.449V119.101H127.852L128.902 121.449L129.953 119.101H130.351ZM130.845 120.809C130.845 120.579 130.892 120.378 130.985 120.205C131.078 120.03 131.205 119.895 131.366 119.799C131.53 119.703 131.712 119.655 131.912 119.655C132.109 119.655 132.28 119.698 132.425 119.782C132.57 119.867 132.678 119.974 132.749 120.103V119.692H133.127V121.941H132.749V121.523C132.676 121.654 132.565 121.764 132.417 121.851C132.272 121.936 132.102 121.978 131.908 121.978C131.708 121.978 131.528 121.929 131.366 121.831C131.205 121.732 131.078 121.594 130.985 121.416C130.892 121.238 130.845 121.036 130.845 120.809ZM132.749 120.813C132.749 120.643 132.715 120.495 132.647 120.369C132.578 120.244 132.485 120.148 132.368 120.082C132.253 120.014 132.126 119.98 131.986 119.98C131.846 119.98 131.719 120.012 131.604 120.078C131.489 120.144 131.398 120.239 131.329 120.365C131.261 120.491 131.227 120.639 131.227 120.809C131.227 120.981 131.261 121.131 131.329 121.26C131.398 121.386 131.489 121.483 131.604 121.551C131.719 121.617 131.846 121.65 131.986 121.65C132.126 121.65 132.253 121.617 132.368 121.551C132.485 121.483 132.578 121.386 132.647 121.26C132.715 121.131 132.749 120.982 132.749 120.813ZM135.696 119.692L134.341 123H133.955L134.399 121.917L133.491 119.692H133.906L134.612 121.515L135.31 119.692H135.696Z" fill="#7B91B0"/>
<rect x="132.058" y="59.0723" width="6.56703" height="54.5884" rx="1.64176" fill="#FFCF00"/>
<rect x="123.85" y="74.4492" width="6.56703" height="39.2114" rx="1.64176" fill="#1C5CFF"/>
<path d="M148.591 119.081V121.194C148.591 121.43 148.518 121.619 148.373 121.761C148.228 121.9 148.037 121.97 147.799 121.97C147.558 121.97 147.365 121.899 147.22 121.757C147.075 121.612 147.002 121.415 147.002 121.166H147.376C147.379 121.305 147.414 121.419 147.482 121.506C147.554 121.594 147.659 121.638 147.799 121.638C147.938 121.638 148.042 121.597 148.11 121.515C148.179 121.43 148.213 121.323 148.213 121.194V119.081H148.591ZM151.321 119.692V121.941H150.948V121.609C150.877 121.724 150.777 121.814 150.648 121.88C150.522 121.943 150.383 121.974 150.229 121.974C150.054 121.974 149.897 121.939 149.757 121.868C149.618 121.794 149.507 121.684 149.425 121.539C149.346 121.394 149.306 121.218 149.306 121.01V119.692H149.675V120.96C149.675 121.182 149.731 121.353 149.844 121.474C149.956 121.591 150.109 121.65 150.303 121.65C150.503 121.65 150.66 121.588 150.775 121.465C150.89 121.342 150.948 121.163 150.948 120.928V119.692H151.321ZM153.048 119.651C153.321 119.651 153.543 119.735 153.713 119.902C153.882 120.066 153.967 120.304 153.967 120.616V121.941H153.598V120.669C153.598 120.445 153.542 120.274 153.429 120.156C153.317 120.036 153.164 119.975 152.97 119.975C152.773 119.975 152.615 120.037 152.498 120.16C152.383 120.283 152.325 120.462 152.325 120.698V121.941H151.952V119.692H152.325V120.012C152.399 119.897 152.499 119.808 152.625 119.746C152.754 119.683 152.894 119.651 153.048 119.651ZM156.629 120.731C156.629 120.802 156.625 120.877 156.617 120.956H154.819C154.833 121.178 154.908 121.352 155.045 121.478C155.185 121.601 155.353 121.662 155.55 121.662C155.711 121.662 155.845 121.625 155.952 121.551C156.062 121.475 156.138 121.374 156.182 121.248H156.584C156.524 121.464 156.404 121.64 156.223 121.777C156.042 121.911 155.818 121.978 155.55 121.978C155.337 121.978 155.145 121.93 154.975 121.835C154.808 121.739 154.677 121.603 154.581 121.428C154.486 121.25 154.438 121.045 154.438 120.813C154.438 120.58 154.484 120.376 154.577 120.201C154.67 120.026 154.8 119.892 154.967 119.799C155.137 119.703 155.331 119.655 155.55 119.655C155.763 119.655 155.952 119.702 156.116 119.795C156.281 119.888 156.406 120.016 156.494 120.181C156.584 120.342 156.629 120.525 156.629 120.731ZM156.244 120.653C156.244 120.51 156.212 120.389 156.149 120.287C156.086 120.183 156 120.105 155.891 120.053C155.784 119.999 155.665 119.971 155.534 119.971C155.345 119.971 155.183 120.031 155.049 120.152C154.918 120.272 154.843 120.439 154.823 120.653H156.244Z" fill="#7B91B0"/>
<rect x="152.58" y="59.0723" width="6.56703" height="54.5884" rx="1.64176" fill="#FFCF00"/>
<rect x="144.372" y="74.4492" width="6.56703" height="39.2114" rx="1.64176" fill="#1C5CFF"/>
<path d="M169.935 119.081V121.194C169.935 121.43 169.863 121.619 169.718 121.761C169.573 121.9 169.381 121.97 169.143 121.97C168.902 121.97 168.71 121.899 168.565 121.757C168.42 121.612 168.347 121.415 168.347 121.166H168.72C168.723 121.305 168.759 121.419 168.827 121.506C168.898 121.594 169.004 121.638 169.143 121.638C169.283 121.638 169.387 121.597 169.455 121.515C169.524 121.43 169.558 121.323 169.558 121.194V119.081H169.935ZM172.666 119.692V121.941H172.292V121.609C172.221 121.724 172.121 121.814 171.993 121.88C171.867 121.943 171.727 121.974 171.574 121.974C171.399 121.974 171.242 121.939 171.102 121.868C170.963 121.794 170.852 121.684 170.77 121.539C170.69 121.394 170.651 121.218 170.651 121.01V119.692H171.02V120.96C171.02 121.182 171.076 121.353 171.188 121.474C171.301 121.591 171.454 121.65 171.648 121.65C171.848 121.65 172.005 121.588 172.12 121.465C172.235 121.342 172.292 121.163 172.292 120.928V119.692H172.666ZM173.67 118.904V121.941H173.297V118.904H173.67ZM176.244 119.692L174.889 123H174.504L174.947 121.917L174.04 119.692H174.454L175.16 121.515L175.858 119.692H176.244Z" fill="#7B91B0"/>
<rect x="173.104" y="59.0723" width="6.56703" height="54.5884" rx="1.64176" fill="#FFCF00"/>
<rect x="164.896" y="74.4492" width="6.56703" height="39.2114" rx="1.64176" fill="#1C5CFF"/>
<path d="M125.049 137.983C124.651 137.783 124.452 137.469 124.452 137.04C124.452 136.833 124.503 136.644 124.607 136.471C124.71 136.299 124.865 136.163 125.072 136.063C125.279 135.96 125.532 135.908 125.831 135.908C126.126 135.908 126.377 135.96 126.583 136.063C126.794 136.163 126.951 136.299 127.055 136.471C127.158 136.644 127.21 136.833 127.21 137.04C127.21 137.255 127.154 137.444 127.043 137.609C126.936 137.77 126.792 137.894 126.612 137.983C126.831 138.063 127.003 138.195 127.129 138.379C127.256 138.559 127.319 138.772 127.319 139.017C127.319 139.266 127.256 139.486 127.129 139.678C127.003 139.869 126.827 140.017 126.601 140.12C126.375 140.224 126.118 140.275 125.831 140.275C125.543 140.275 125.287 140.224 125.061 140.12C124.839 140.017 124.664 139.869 124.538 139.678C124.411 139.486 124.348 139.266 124.348 139.017C124.348 138.768 124.411 138.553 124.538 138.373C124.664 138.193 124.835 138.063 125.049 137.983ZM126.583 137.121C126.583 136.906 126.516 136.741 126.382 136.626C126.248 136.512 126.064 136.454 125.831 136.454C125.601 136.454 125.419 136.512 125.285 136.626C125.151 136.741 125.084 136.908 125.084 137.126C125.084 137.318 125.153 137.475 125.291 137.598C125.432 137.716 125.612 137.776 125.831 137.776C126.049 137.776 126.229 137.714 126.371 137.592C126.513 137.469 126.583 137.312 126.583 137.121ZM125.831 138.27C125.578 138.27 125.371 138.333 125.21 138.46C125.053 138.582 124.974 138.76 124.974 138.994C124.974 139.212 125.051 139.39 125.204 139.528C125.358 139.662 125.566 139.729 125.831 139.729C126.091 139.729 126.296 139.66 126.446 139.523C126.599 139.385 126.675 139.208 126.675 138.994C126.675 138.764 126.597 138.586 126.44 138.46C126.287 138.333 126.084 138.27 125.831 138.27ZM128.357 140.212C128.238 140.212 128.139 140.172 128.058 140.091C127.978 140.011 127.938 139.911 127.938 139.793C127.938 139.674 127.978 139.574 128.058 139.494C128.139 139.413 128.238 139.373 128.357 139.373C128.472 139.373 128.57 139.413 128.65 139.494C128.731 139.574 128.771 139.674 128.771 139.793C128.771 139.911 128.731 140.011 128.65 140.091C128.57 140.172 128.472 140.212 128.357 140.212ZM130.1 137.983C129.701 137.783 129.502 137.469 129.502 137.04C129.502 136.833 129.554 136.644 129.657 136.471C129.76 136.299 129.916 136.163 130.123 136.063C130.329 135.96 130.582 135.908 130.881 135.908C131.176 135.908 131.427 135.96 131.634 136.063C131.844 136.163 132.001 136.299 132.105 136.471C132.208 136.644 132.26 136.833 132.26 137.04C132.26 137.255 132.205 137.444 132.093 137.609C131.986 137.77 131.843 137.894 131.662 137.983C131.881 138.063 132.053 138.195 132.18 138.379C132.306 138.559 132.369 138.772 132.369 139.017C132.369 139.266 132.306 139.486 132.18 139.678C132.053 139.869 131.877 140.017 131.651 140.12C131.425 140.224 131.168 140.275 130.881 140.275C130.594 140.275 130.337 140.224 130.111 140.12C129.889 140.017 129.715 139.869 129.588 139.678C129.462 139.486 129.398 139.266 129.398 139.017C129.398 138.768 129.462 138.553 129.588 138.373C129.715 138.193 129.885 138.063 130.1 137.983ZM131.634 137.121C131.634 136.906 131.567 136.741 131.433 136.626C131.299 136.512 131.115 136.454 130.881 136.454C130.651 136.454 130.469 136.512 130.335 136.626C130.201 136.741 130.134 136.908 130.134 137.126C130.134 137.318 130.203 137.475 130.341 137.598C130.483 137.716 130.663 137.776 130.881 137.776C131.099 137.776 131.279 137.714 131.421 137.592C131.563 137.469 131.634 137.312 131.634 137.121ZM130.881 138.27C130.628 138.27 130.421 138.333 130.26 138.46C130.103 138.582 130.025 138.76 130.025 138.994C130.025 139.212 130.101 139.39 130.255 139.528C130.408 139.662 130.617 139.729 130.881 139.729C131.141 139.729 131.346 139.66 131.496 139.523C131.649 139.385 131.726 139.208 131.726 138.994C131.726 138.764 131.647 138.586 131.49 138.46C131.337 138.333 131.134 138.27 130.881 138.27ZM133.419 139.281C133.787 138.963 134.076 138.703 134.287 138.5C134.501 138.293 134.679 138.078 134.821 137.856C134.963 137.634 135.034 137.412 135.034 137.19C135.034 136.96 134.978 136.78 134.867 136.649C134.76 136.519 134.589 136.454 134.356 136.454C134.13 136.454 133.953 136.527 133.827 136.672C133.704 136.814 133.639 137.006 133.632 137.247H133C133.011 136.81 133.141 136.477 133.39 136.247C133.643 136.014 133.963 135.897 134.35 135.897C134.767 135.897 135.093 136.012 135.327 136.242C135.564 136.471 135.683 136.778 135.683 137.161C135.683 137.437 135.612 137.703 135.47 137.96C135.333 138.212 135.166 138.44 134.971 138.643C134.779 138.843 134.534 139.074 134.235 139.339L133.976 139.569H135.798V140.114H133.005V139.637L133.419 139.281ZM136.362 137.017C136.385 136.661 136.521 136.383 136.77 136.184C137.023 135.985 137.345 135.885 137.735 135.885C138.003 135.885 138.235 135.933 138.431 136.029C138.626 136.125 138.773 136.255 138.873 136.42C138.973 136.584 139.022 136.77 139.022 136.977C139.022 137.215 138.959 137.418 138.833 137.586C138.706 137.755 138.555 137.868 138.379 137.925V137.948C138.605 138.017 138.781 138.143 138.907 138.327C139.034 138.507 139.097 138.739 139.097 139.023C139.097 139.249 139.045 139.45 138.942 139.626C138.839 139.802 138.685 139.942 138.482 140.045C138.279 140.145 138.036 140.195 137.752 140.195C137.339 140.195 136.998 140.09 136.73 139.879C136.465 139.664 136.324 139.358 136.304 138.959H136.937C136.952 139.162 137.03 139.329 137.172 139.459C137.314 139.586 137.505 139.649 137.747 139.649C137.98 139.649 138.16 139.586 138.287 139.459C138.413 139.329 138.477 139.162 138.477 138.959C138.477 138.691 138.39 138.502 138.218 138.391C138.049 138.276 137.789 138.218 137.436 138.218H137.287V137.678H137.442C137.752 137.674 137.988 137.622 138.149 137.523C138.314 137.423 138.396 137.266 138.396 137.052C138.396 136.868 138.337 136.722 138.218 136.615C138.099 136.504 137.931 136.448 137.712 136.448C137.498 136.448 137.331 136.504 137.212 136.615C137.094 136.722 137.023 136.856 137 137.017H136.362Z" fill="#1C5CFF"/>
<path d="M62.4928 132.859V136.297H61.8032V132.859H62.4928ZM64.6861 133.529C65.0112 133.529 65.2738 133.632 65.4741 133.839C65.6744 134.043 65.7746 134.328 65.7746 134.696V136.297H65.085V134.79C65.085 134.573 65.0309 134.407 64.9225 134.292C64.8141 134.174 64.6664 134.115 64.4792 134.115C64.2888 134.115 64.1377 134.174 64.0261 134.292C63.9177 134.407 63.8636 134.573 63.8636 134.79V136.297H63.174V133.568H63.8636V133.908C63.9555 133.79 64.0721 133.698 64.2133 133.632C64.3577 133.563 64.5153 133.529 64.6861 133.529ZM66.253 134.933C66.253 134.65 66.3104 134.404 66.4254 134.194C66.5403 133.98 66.6995 133.816 66.9031 133.701C67.1067 133.583 67.3398 133.524 67.6025 133.524C67.9407 133.524 68.2198 133.609 68.4398 133.78C68.6631 133.948 68.8125 134.184 68.888 134.489H68.1443C68.1049 134.371 68.0376 134.279 67.9423 134.213C67.8504 134.145 67.7355 134.11 67.5976 134.11C67.4006 134.11 67.2446 134.182 67.1297 134.327C67.0148 134.468 66.9573 134.67 66.9573 134.933C66.9573 135.192 67.0148 135.394 67.1297 135.538C67.2446 135.68 67.4006 135.75 67.5976 135.75C67.8767 135.75 68.0589 135.625 68.1443 135.376H68.888C68.8125 135.671 68.6631 135.906 68.4398 136.08C68.2165 136.254 67.9374 136.341 67.6025 136.341C67.3398 136.341 67.1067 136.284 66.9031 136.169C66.6995 136.051 66.5403 135.886 66.4254 135.676C66.3104 135.463 66.253 135.215 66.253 134.933ZM70.6048 136.341C70.3421 136.341 70.1057 136.284 69.8955 136.169C69.6854 136.051 69.5196 135.885 69.3981 135.671C69.2799 135.458 69.2208 135.212 69.2208 134.933C69.2208 134.653 69.2815 134.407 69.403 134.194C69.5278 133.98 69.6969 133.816 69.9103 133.701C70.1237 133.583 70.3618 133.524 70.6245 133.524C70.8871 133.524 71.1252 133.583 71.3386 133.701C71.5521 133.816 71.7195 133.98 71.841 134.194C71.9658 134.407 72.0282 134.653 72.0282 134.933C72.0282 135.212 71.9641 135.458 71.8361 135.671C71.7113 135.885 71.5406 136.051 71.3239 136.169C71.1104 136.284 70.8707 136.341 70.6048 136.341ZM70.6048 135.74C70.7295 135.74 70.8461 135.711 70.9545 135.652C71.0661 135.589 71.1548 135.497 71.2204 135.376C71.2861 135.254 71.3189 135.107 71.3189 134.933C71.3189 134.673 71.25 134.475 71.1121 134.337C70.9774 134.195 70.8116 134.125 70.6146 134.125C70.4176 134.125 70.2518 134.195 70.1172 134.337C69.9858 134.475 69.9201 134.673 69.9201 134.933C69.9201 135.192 69.9842 135.392 70.1122 135.533C70.2436 135.671 70.4078 135.74 70.6048 135.74ZM75.9226 133.529C76.2575 133.529 76.5267 133.632 76.7303 133.839C76.9372 134.043 77.0406 134.328 77.0406 134.696V136.297H76.3511V134.79C76.3511 134.576 76.2969 134.414 76.1885 134.302C76.0802 134.187 75.9324 134.13 75.7452 134.13C75.5581 134.13 75.4087 134.187 75.297 134.302C75.1887 134.414 75.1345 134.576 75.1345 134.79V136.297H74.445V134.79C74.445 134.576 74.3908 134.414 74.2824 134.302C74.1741 134.187 74.0263 134.13 73.8392 134.13C73.6487 134.13 73.4977 134.187 73.386 134.302C73.2777 134.414 73.2235 134.576 73.2235 134.79V136.297H72.534V133.568H73.2235V133.898C73.3122 133.783 73.4254 133.693 73.5634 133.627C73.7045 133.562 73.8589 133.529 74.0263 133.529C74.2398 133.529 74.4302 133.575 74.5977 133.667C74.7651 133.755 74.8948 133.883 74.9868 134.051C75.0754 133.893 75.2035 133.767 75.3709 133.672C75.5417 133.576 75.7255 133.529 75.9226 133.529ZM80.2314 134.873C80.2314 134.972 80.2249 135.061 80.2117 135.139H78.217C78.2334 135.336 78.3024 135.491 78.4239 135.602C78.5454 135.714 78.6948 135.77 78.8721 135.77C79.1282 135.77 79.3104 135.66 79.4188 135.44H80.1625C80.0837 135.703 79.9326 135.919 79.7094 136.09C79.4861 136.257 79.2119 136.341 78.8868 136.341C78.6242 136.341 78.3877 136.284 78.1776 136.169C77.9707 136.051 77.8082 135.885 77.69 135.671C77.5751 135.458 77.5176 135.212 77.5176 134.933C77.5176 134.65 77.5751 134.402 77.69 134.189C77.8049 133.975 77.9658 133.811 78.1727 133.696C78.3795 133.581 78.6176 133.524 78.8868 133.524C79.1462 133.524 79.3777 133.58 79.5813 133.691C79.7882 133.803 79.9474 133.962 80.0591 134.169C80.174 134.373 80.2314 134.608 80.2314 134.873ZM79.5173 134.676C79.514 134.499 79.45 134.358 79.3252 134.253C79.2004 134.145 79.0477 134.09 78.8671 134.09C78.6964 134.09 78.5519 134.143 78.4337 134.248C78.3188 134.35 78.2482 134.493 78.2219 134.676H79.5173ZM82.258 133.243C82.1365 133.243 82.0348 133.205 81.9527 133.13C81.8739 133.051 81.8345 132.954 81.8345 132.839C81.8345 132.724 81.8739 132.629 81.9527 132.554C82.0348 132.475 82.1365 132.435 82.258 132.435C82.3795 132.435 82.4797 132.475 82.5585 132.554C82.6406 132.629 82.6816 132.724 82.6816 132.839C82.6816 132.954 82.6406 133.051 82.5585 133.13C82.4797 133.205 82.3795 133.243 82.258 133.243ZM82.5979 133.568V136.297H81.9083V133.568H82.5979ZM84.7912 133.529C85.1163 133.529 85.379 133.632 85.5792 133.839C85.7795 134.043 85.8797 134.328 85.8797 134.696V136.297H85.1901V134.79C85.1901 134.573 85.136 134.407 85.0276 134.292C84.9193 134.174 84.7715 134.115 84.5843 134.115C84.3939 134.115 84.2429 134.174 84.1312 134.292C84.0229 134.407 83.9687 134.573 83.9687 134.79V136.297H83.2791V133.568H83.9687V133.908C84.0606 133.79 84.1772 133.698 84.3184 133.632C84.4628 133.563 84.6205 133.529 84.7912 133.529ZM86.3581 134.933C86.3581 134.65 86.4156 134.404 86.5305 134.194C86.6454 133.98 86.8046 133.816 87.0082 133.701C87.2118 133.583 87.4449 133.524 87.7076 133.524C88.0458 133.524 88.3249 133.609 88.5449 133.78C88.7682 133.948 88.9176 134.184 88.9931 134.489H88.2494C88.21 134.371 88.1427 134.279 88.0475 134.213C87.9555 134.145 87.8406 134.11 87.7027 134.11C87.5057 134.11 87.3497 134.182 87.2348 134.327C87.1199 134.468 87.0624 134.67 87.0624 134.933C87.0624 135.192 87.1199 135.394 87.2348 135.538C87.3497 135.68 87.5057 135.75 87.7027 135.75C87.9818 135.75 88.164 135.625 88.2494 135.376H88.9931C88.9176 135.671 88.7682 135.906 88.5449 136.08C88.3216 136.254 88.0425 136.341 87.7076 136.341C87.4449 136.341 87.2118 136.284 87.0082 136.169C86.8046 136.051 86.6454 135.886 86.5305 135.676C86.4156 135.463 86.3581 135.215 86.3581 134.933ZM90.1878 133.992C90.2765 133.847 90.3914 133.734 90.5326 133.652C90.677 133.57 90.8412 133.529 91.0251 133.529V134.253H90.8429C90.6261 134.253 90.462 134.304 90.3503 134.406C90.242 134.507 90.1878 134.685 90.1878 134.937V136.297H89.4983V133.568H90.1878V133.992ZM94.026 134.873C94.026 134.972 94.0195 135.061 94.0063 135.139H92.0116C92.028 135.336 92.097 135.491 92.2185 135.602C92.34 135.714 92.4894 135.77 92.6667 135.77C92.9228 135.77 93.105 135.66 93.2134 135.44H93.9571C93.8783 135.703 93.7272 135.919 93.504 136.09C93.2807 136.257 93.0065 136.341 92.6814 136.341C92.4188 136.341 92.1824 136.284 91.9722 136.169C91.7653 136.051 91.6028 135.885 91.4846 135.671C91.3697 135.458 91.3122 135.212 91.3122 134.933C91.3122 134.65 91.3697 134.402 91.4846 134.189C91.5995 133.975 91.7604 133.811 91.9673 133.696C92.1741 133.581 92.4122 133.524 92.6814 133.524C92.9408 133.524 93.1723 133.58 93.3759 133.691C93.5828 133.803 93.742 133.962 93.8537 134.169C93.9686 134.373 94.026 134.608 94.026 134.873ZM93.3119 134.676C93.3086 134.499 93.2446 134.358 93.1198 134.253C92.995 134.145 92.8423 134.09 92.6617 134.09C92.491 134.09 92.3465 134.143 92.2283 134.248C92.1134 134.35 92.0428 134.493 92.0165 134.676H93.3119ZM94.352 134.923C94.352 134.647 94.4062 134.402 94.5146 134.189C94.6262 133.975 94.7756 133.811 94.9628 133.696C95.1532 133.581 95.365 133.524 95.5981 133.524C95.8017 133.524 95.979 133.565 96.1301 133.647C96.2844 133.729 96.4075 133.833 96.4995 133.957V133.568H97.1939V136.297H96.4995V135.898C96.4108 136.026 96.2877 136.133 96.1301 136.218C95.9757 136.3 95.7968 136.341 95.5932 136.341C95.3634 136.341 95.1532 136.282 94.9628 136.164C94.7756 136.046 94.6262 135.88 94.5146 135.666C94.4062 135.45 94.352 135.202 94.352 134.923ZM96.4995 134.933C96.4995 134.765 96.4666 134.622 96.401 134.504C96.3353 134.383 96.2466 134.291 96.135 134.228C96.0233 134.163 95.9035 134.13 95.7754 134.13C95.6474 134.13 95.5292 134.161 95.4208 134.223C95.3125 134.286 95.2238 134.378 95.1549 134.499C95.0892 134.617 95.0564 134.759 95.0564 134.923C95.0564 135.087 95.0892 135.231 95.1549 135.356C95.2238 135.478 95.3125 135.571 95.4208 135.637C95.5325 135.703 95.6507 135.735 95.7754 135.735C95.9035 135.735 96.0233 135.704 96.135 135.642C96.2466 135.576 96.3353 135.484 96.401 135.366C96.4666 135.245 96.4995 135.1 96.4995 134.933ZM98.9115 136.341C98.6883 136.341 98.488 136.302 98.3106 136.223C98.1333 136.141 97.9921 136.031 97.8871 135.893C97.7853 135.755 97.7295 135.602 97.7196 135.435H98.4141C98.4272 135.54 98.4781 135.627 98.5668 135.696C98.6587 135.765 98.772 135.799 98.9066 135.799C99.0379 135.799 99.1397 135.773 99.212 135.721C99.2875 135.668 99.3253 135.601 99.3253 135.519C99.3253 135.43 99.2793 135.364 99.1873 135.322C99.0987 135.276 98.9559 135.226 98.7588 135.174C98.5553 135.125 98.3878 135.074 98.2565 135.021C98.1284 134.969 98.0168 134.888 97.9216 134.78C97.8296 134.672 97.7836 134.525 97.7836 134.342C97.7836 134.191 97.8263 134.053 97.9117 133.928C98.0004 133.803 98.1251 133.705 98.286 133.632C98.4502 133.56 98.6423 133.524 98.8623 133.524C99.1873 133.524 99.4467 133.606 99.6405 133.77C99.8342 133.931 99.9409 134.149 99.9606 134.425H99.3006C99.2908 134.317 99.2448 134.232 99.1627 134.169C99.0839 134.103 98.9772 134.071 98.8426 134.071C98.7178 134.071 98.6209 134.094 98.552 134.14C98.4863 134.186 98.4535 134.25 98.4535 134.332C98.4535 134.424 98.4995 134.494 98.5914 134.543C98.6833 134.589 98.8262 134.637 99.0199 134.686C99.2169 134.736 99.3794 134.786 99.5075 134.839C99.6355 134.892 99.7455 134.974 99.8375 135.085C99.9327 135.194 99.982 135.338 99.9852 135.519C99.9852 135.676 99.9409 135.817 99.8523 135.942C99.7669 136.067 99.6421 136.166 99.4779 136.238C99.317 136.307 99.1282 136.341 98.9115 136.341ZM103.088 134.873C103.088 134.972 103.081 135.061 103.068 135.139H101.073C101.09 135.336 101.159 135.491 101.28 135.602C101.402 135.714 101.551 135.77 101.728 135.77C101.985 135.77 102.167 135.66 102.275 135.44H103.019C102.94 135.703 102.789 135.919 102.566 136.09C102.342 136.257 102.068 136.341 101.743 136.341C101.481 136.341 101.244 136.284 101.034 136.169C100.827 136.051 100.665 135.885 100.546 135.671C100.431 135.458 100.374 135.212 100.374 134.933C100.374 134.65 100.431 134.402 100.546 134.189C100.661 133.975 100.822 133.811 101.029 133.696C101.236 133.581 101.474 133.524 101.743 133.524C102.003 133.524 102.234 133.58 102.438 133.691C102.645 133.803 102.804 133.962 102.915 134.169C103.03 134.373 103.088 134.608 103.088 134.873ZM102.374 134.676C102.37 134.499 102.306 134.358 102.182 134.253C102.057 134.145 101.904 134.09 101.723 134.09C101.553 134.09 101.408 134.143 101.29 134.248C101.175 134.35 101.105 134.493 101.078 134.676H102.374Z" fill="#151D48"/>
<path d="M63.9465 141.654C63.8672 141.487 63.7523 141.358 63.6018 141.268C63.4513 141.175 63.2762 141.129 63.0764 141.129C62.8767 141.129 62.6961 141.175 62.5346 141.268C62.3759 141.358 62.2501 141.49 62.157 141.662C62.0667 141.832 62.0216 142.029 62.0216 142.253C62.0216 142.477 62.0667 142.674 62.157 142.844C62.2501 143.014 62.3759 143.145 62.5346 143.238C62.6961 143.328 62.8767 143.374 63.0764 143.374C63.3555 143.374 63.5854 143.29 63.7659 143.123C63.9465 142.956 64.0519 142.731 64.082 142.446H62.941V142.142H64.4801V142.43C64.4582 142.665 64.3843 142.881 64.2585 143.078C64.1326 143.272 63.9671 143.427 63.7618 143.542C63.5566 143.654 63.3281 143.71 63.0764 143.71C62.811 143.71 62.5688 143.649 62.3499 143.525C62.131 143.4 61.9573 143.226 61.8287 143.004C61.7028 142.783 61.6399 142.532 61.6399 142.253C61.6399 141.974 61.7028 141.724 61.8287 141.502C61.9573 141.278 62.131 141.104 62.3499 140.981C62.5688 140.855 62.811 140.792 63.0764 140.792C63.3801 140.792 63.6483 140.867 63.8809 141.018C64.1162 141.168 64.2872 141.38 64.3939 141.654H63.9465ZM65.3474 140.648V143.686H64.974V140.648H65.3474ZM66.965 143.722C66.7543 143.722 66.5627 143.675 66.3904 143.579C66.2207 143.483 66.0866 143.348 65.9881 143.172C65.8924 142.995 65.8445 142.789 65.8445 142.557C65.8445 142.327 65.8937 142.125 65.9922 141.949C66.0935 141.772 66.2303 141.636 66.4027 141.543C66.575 141.447 66.768 141.399 66.9814 141.399C67.1948 141.399 67.3877 141.447 67.5601 141.543C67.7325 141.636 67.8679 141.77 67.9664 141.945C68.0677 142.12 68.1183 142.324 68.1183 142.557C68.1183 142.789 68.0663 142.995 67.9623 143.172C67.8611 143.348 67.7229 143.483 67.5478 143.579C67.3727 143.675 67.1784 143.722 66.965 143.722ZM66.965 143.394C67.099 143.394 67.2249 143.363 67.3426 143.3C67.4602 143.237 67.5546 143.142 67.6258 143.017C67.6997 142.891 67.7366 142.737 67.7366 142.557C67.7366 142.376 67.701 142.223 67.6299 142.097C67.5587 141.971 67.4657 141.878 67.3508 141.818C67.2359 141.755 67.1114 141.724 66.9773 141.724C66.8405 141.724 66.7146 141.755 66.5997 141.818C66.4875 141.878 66.3972 141.971 66.3288 142.097C66.2604 142.223 66.2262 142.376 66.2262 142.557C66.2262 142.74 66.259 142.895 66.3247 143.021C66.3931 143.147 66.4834 143.241 66.5956 143.304C66.7078 143.364 66.8309 143.394 66.965 143.394ZM68.9829 141.855C69.0595 141.721 69.1717 141.611 69.3194 141.527C69.4672 141.442 69.6355 141.399 69.8243 141.399C70.0268 141.399 70.2087 141.447 70.3702 141.543C70.5316 141.639 70.6588 141.774 70.7519 141.949C70.8449 142.122 70.8914 142.323 70.8914 142.553C70.8914 142.78 70.8449 142.982 70.7519 143.16C70.6588 143.338 70.5302 143.476 70.3661 143.575C70.2046 143.673 70.024 143.722 69.8243 143.722C69.63 143.722 69.459 143.68 69.3112 143.595C69.1662 143.51 69.0568 143.402 68.9829 143.271V143.686H68.6094V140.648H68.9829V141.855ZM70.5097 142.553C70.5097 142.383 70.4755 142.235 70.4071 142.109C70.3387 141.984 70.2457 141.888 70.128 141.822C70.0131 141.756 69.8859 141.724 69.7463 141.724C69.6095 141.724 69.4823 141.758 69.3646 141.826C69.2497 141.892 69.1566 141.989 69.0855 142.118C69.0171 142.244 68.9829 142.39 68.9829 142.557C68.9829 142.726 69.0171 142.876 69.0855 143.004C69.1566 143.13 69.2497 143.227 69.3646 143.296C69.4823 143.361 69.6095 143.394 69.7463 143.394C69.8859 143.394 70.0131 143.361 70.128 143.296C70.2457 143.227 70.3387 143.13 70.4071 143.004C70.4755 142.876 70.5097 142.725 70.5097 142.553ZM71.2435 142.553C71.2435 142.323 71.29 142.122 71.3831 141.949C71.4761 141.774 71.6033 141.639 71.7648 141.543C71.9289 141.447 72.1109 141.399 72.3106 141.399C72.5077 141.399 72.6787 141.442 72.8237 141.527C72.9687 141.611 73.0768 141.718 73.1479 141.847V141.436H73.5256V143.686H73.1479V143.267C73.0741 143.398 72.9632 143.508 72.8155 143.595C72.6705 143.68 72.5008 143.722 72.3065 143.722C72.1068 143.722 71.9262 143.673 71.7648 143.575C71.6033 143.476 71.4761 143.338 71.3831 143.16C71.29 142.982 71.2435 142.78 71.2435 142.553ZM73.1479 142.557C73.1479 142.387 73.1137 142.239 73.0453 142.114C72.9769 141.988 72.8839 141.892 72.7662 141.826C72.6513 141.758 72.5241 141.724 72.3845 141.724C72.245 141.724 72.1177 141.756 72.0028 141.822C71.8879 141.888 71.7962 141.984 71.7278 142.109C71.6594 142.235 71.6252 142.383 71.6252 142.553C71.6252 142.725 71.6594 142.876 71.7278 143.004C71.7962 143.13 71.8879 143.227 72.0028 143.296C72.1177 143.361 72.245 143.394 72.3845 143.394C72.5241 143.394 72.6513 143.361 72.7662 143.296C72.8839 143.227 72.9769 143.13 73.0453 143.004C73.1137 142.876 73.1479 142.726 73.1479 142.557ZM74.5302 140.648V143.686H74.1567V140.648H74.5302Z" fill="#737791"/>
<g clip-path="url(#clip0_1203_7)">
<rect x="42.5835" y="130.889" width="14.7758" height="14.7758" rx="2.46264" fill="#1C5CFF" fill-opacity="0.11"/>
<mask id="mask1_1203_7" style="mask-type:luminance" maskUnits="userSpaceOnUse" x="44" y="132" width="12" height="13">
<rect x="44.0605" y="132.363" width="11.8207" height="11.8207" fill="white"/>
</mask>
<g mask="url(#mask1_1203_7)">
<mask id="mask2_1203_7" style="mask-type:luminance" maskUnits="userSpaceOnUse" x="46" y="134" width="8" height="8">
<rect x="46.4243" y="134.727" width="7.09239" height="7.09239" fill="white"/>
</mask>
<g mask="url(#mask2_1203_7)">
<path fill-rule="evenodd" clip-rule="evenodd" d="M51.1035 141.079C52.0097 141.079 52.7048 140.752 52.5074 139.434L52.2775 137.649C52.1558 136.992 51.7365 136.74 51.3686 136.74H48.3607C47.9874 136.74 47.5925 137.011 47.4518 137.649L47.2219 139.434C47.0542 140.603 47.7305 141.079 48.6366 141.079H51.1035Z" stroke="#1C5CFF" stroke-width="0.615659" stroke-linecap="round" stroke-linejoin="round"/>
<path d="M48.5957 136.677C48.5957 135.972 49.1673 135.4 49.8724 135.4C50.212 135.399 50.5381 135.533 50.7787 135.772C51.0193 136.012 51.1546 136.338 51.1546 136.677" stroke="#1C5CFF" stroke-width="0.615659" stroke-linecap="round" stroke-linejoin="round"/>
<path d="M48.9966 138.006H49.0101" stroke="#1C5CFF" stroke-width="0.615659" stroke-linecap="round" stroke-linejoin="round"/>
<path d="M50.7192 138.006H50.7328" stroke="#1C5CFF" stroke-width="0.615659" stroke-linecap="round" stroke-linejoin="round"/>
</g>
</g>
</g>
<path d="M124.346 158.336V157.739H125.541V161.928H124.88V158.336H124.346ZM126.803 161.037C127.171 160.719 127.46 160.459 127.671 160.256C127.885 160.049 128.063 159.834 128.205 159.612C128.347 159.39 128.418 159.168 128.418 158.945C128.418 158.716 128.362 158.536 128.251 158.405C128.144 158.275 127.973 158.21 127.74 158.21C127.514 158.21 127.338 158.283 127.211 158.428C127.089 158.57 127.023 158.762 127.016 159.003H126.384C126.395 158.566 126.525 158.233 126.774 158.003C127.027 157.769 127.347 157.653 127.734 157.653C128.152 157.653 128.477 157.768 128.711 157.997C128.948 158.227 129.067 158.534 129.067 158.917C129.067 159.193 128.996 159.459 128.854 159.715C128.717 159.968 128.55 160.196 128.355 160.399C128.163 160.598 127.918 160.83 127.619 161.095L127.36 161.324H129.182V161.87H126.389V161.393L126.803 161.037ZM130.108 161.968C129.989 161.968 129.89 161.928 129.809 161.847C129.729 161.767 129.689 161.667 129.689 161.548C129.689 161.43 129.729 161.33 129.809 161.25C129.89 161.169 129.989 161.129 130.108 161.129C130.223 161.129 130.321 161.169 130.401 161.25C130.482 161.33 130.522 161.43 130.522 161.548C130.522 161.667 130.482 161.767 130.401 161.847C130.321 161.928 130.223 161.968 130.108 161.968ZM131.057 158.336V157.739H132.253V161.928H131.592V158.336H131.057ZM133.514 161.037C133.882 160.719 134.171 160.459 134.382 160.256C134.597 160.049 134.775 159.834 134.917 159.612C135.058 159.39 135.129 159.168 135.129 158.945C135.129 158.716 135.074 158.536 134.962 158.405C134.855 158.275 134.685 158.21 134.451 158.21C134.225 158.21 134.049 158.283 133.922 158.428C133.8 158.57 133.735 158.762 133.727 159.003H133.095C133.106 158.566 133.237 158.233 133.486 158.003C133.739 157.769 134.058 157.653 134.445 157.653C134.863 157.653 135.188 157.768 135.422 157.997C135.66 158.227 135.778 158.534 135.778 158.917C135.778 159.193 135.708 159.459 135.566 159.715C135.428 159.968 135.261 160.196 135.066 160.399C134.874 160.598 134.629 160.83 134.33 161.095L134.072 161.324H135.893V161.87H133.101V161.393L133.514 161.037ZM136.831 161.037C137.199 160.719 137.488 160.459 137.698 160.256C137.913 160.049 138.091 159.834 138.233 159.612C138.375 159.39 138.445 159.168 138.445 158.945C138.445 158.716 138.39 158.536 138.279 158.405C138.172 158.275 138.001 158.21 137.767 158.21C137.541 158.21 137.365 158.283 137.239 158.428C137.116 158.57 137.051 158.762 137.043 159.003H136.411C136.423 158.566 136.553 158.233 136.802 158.003C137.055 157.769 137.375 157.653 137.762 157.653C138.179 157.653 138.505 157.768 138.739 157.997C138.976 158.227 139.095 158.534 139.095 158.917C139.095 159.193 139.024 159.459 138.882 159.715C138.744 159.968 138.578 160.196 138.382 160.399C138.191 160.598 137.946 160.83 137.647 161.095L137.388 161.324H139.21V161.87H136.417V161.393L136.831 161.037Z" fill="#FFA412"/>
<path d="M61.6358 155.511C61.6358 155.172 61.7113 154.87 61.8623 154.604C62.0167 154.335 62.2252 154.127 62.4878 153.979C62.7538 153.828 63.051 153.752 63.3793 153.752C63.7635 153.752 64.1 153.851 64.389 154.048C64.6779 154.245 64.8799 154.517 64.9948 154.865H64.2018C64.123 154.701 64.0114 154.578 63.8669 154.496C63.7257 154.414 63.5615 154.373 63.3744 154.373C63.1741 154.373 62.9951 154.42 62.8375 154.516C62.6832 154.608 62.5617 154.739 62.4731 154.91C62.3877 155.08 62.345 155.281 62.345 155.511C62.345 155.737 62.3877 155.937 62.4731 156.111C62.5617 156.282 62.6832 156.415 62.8375 156.51C62.9951 156.602 63.1741 156.648 63.3744 156.648C63.5615 156.648 63.7257 156.607 63.8669 156.525C64.0114 156.44 64.123 156.315 64.2018 156.151H64.9948C64.8799 156.502 64.6779 156.776 64.389 156.973C64.1033 157.167 63.7668 157.264 63.3793 157.264C63.051 157.264 62.7538 157.19 62.4878 157.042C62.2252 156.891 62.0167 156.683 61.8623 156.417C61.7113 156.151 61.6358 155.849 61.6358 155.511ZM65.4064 155.86C65.4064 155.584 65.4606 155.34 65.569 155.126C65.6806 154.913 65.83 154.749 66.0172 154.634C66.2076 154.519 66.4194 154.461 66.6525 154.461C66.8561 154.461 67.0334 154.502 67.1845 154.585C67.3388 154.667 67.4619 154.77 67.5539 154.895V154.506H68.2483V157.234H67.5539V156.835C67.4652 156.963 67.3421 157.07 67.1845 157.156C67.0301 157.238 66.8512 157.279 66.6476 157.279C66.4178 157.279 66.2076 157.22 66.0172 157.101C65.83 156.983 65.6806 156.817 65.569 156.604C65.4606 156.387 65.4064 156.139 65.4064 155.86ZM67.5539 155.87C67.5539 155.703 67.521 155.56 67.4554 155.442C67.3897 155.32 67.301 155.228 67.1894 155.166C67.0778 155.1 66.9579 155.067 66.8298 155.067C66.7018 155.067 66.5836 155.098 66.4752 155.161C66.3669 155.223 66.2782 155.315 66.2093 155.437C66.1436 155.555 66.1108 155.696 66.1108 155.86C66.1108 156.024 66.1436 156.169 66.2093 156.294C66.2782 156.415 66.3669 156.509 66.4752 156.574C66.5869 156.64 66.7051 156.673 66.8298 156.673C66.9579 156.673 67.0778 156.642 67.1894 156.579C67.301 156.514 67.3897 156.422 67.4554 156.303C67.521 156.182 67.5539 156.038 67.5539 155.87ZM69.6113 154.929C69.7 154.785 69.8149 154.672 69.9561 154.59C70.1006 154.507 70.2647 154.466 70.4486 154.466V155.19H70.2664C70.0497 155.19 69.8855 155.241 69.7739 155.343C69.6655 155.445 69.6113 155.622 69.6113 155.875V157.234H68.9218V154.506H69.6113V154.929ZM73.4496 155.811C73.4496 155.909 73.443 155.998 73.4299 156.077H71.4351C71.4515 156.274 71.5205 156.428 71.642 156.54C71.7635 156.652 71.9129 156.707 72.0902 156.707C72.3463 156.707 72.5285 156.597 72.6369 156.377H73.3806C73.3018 156.64 73.1508 156.857 72.9275 157.028C72.7042 157.195 72.43 157.279 72.105 157.279C71.8423 157.279 71.6059 157.221 71.3957 157.106C71.1889 156.988 71.0263 156.822 70.9081 156.609C70.7932 156.395 70.7357 156.149 70.7357 155.87C70.7357 155.588 70.7932 155.34 70.9081 155.126C71.0231 154.913 71.1839 154.749 71.3908 154.634C71.5977 154.519 71.8357 154.461 72.105 154.461C72.3644 154.461 72.5959 154.517 72.7994 154.629C73.0063 154.741 73.1655 154.9 73.2772 155.107C73.3921 155.31 73.4496 155.545 73.4496 155.811ZM72.7354 155.614C72.7321 155.437 72.6681 155.295 72.5433 155.19C72.4185 155.082 72.2659 155.028 72.0853 155.028C71.9145 155.028 71.7701 155.08 71.6518 155.185C71.5369 155.287 71.4663 155.43 71.4401 155.614H72.7354ZM76.4894 155.811C76.4894 155.909 76.4828 155.998 76.4697 156.077H74.4749C74.4914 156.274 74.5603 156.428 74.6818 156.54C74.8033 156.652 74.9527 156.707 75.13 156.707C75.3861 156.707 75.5684 156.597 75.6767 156.377H76.4204C76.3416 156.64 76.1906 156.857 75.9673 157.028C75.744 157.195 75.4699 157.279 75.1448 157.279C74.8821 157.279 74.6457 157.221 74.4355 157.106C74.2287 156.988 74.0662 156.822 73.9479 156.609C73.833 156.395 73.7756 156.149 73.7756 155.87C73.7756 155.588 73.833 155.34 73.9479 155.126C74.0629 154.913 74.2238 154.749 74.4306 154.634C74.6375 154.519 74.8755 154.461 75.1448 154.461C75.4042 154.461 75.6357 154.517 75.8392 154.629C76.0461 154.741 76.2054 154.9 76.317 155.107C76.4319 155.31 76.4894 155.545 76.4894 155.811ZM75.7752 155.614C75.7719 155.437 75.7079 155.295 75.5831 155.19C75.4584 155.082 75.3057 155.028 75.1251 155.028C74.9543 155.028 74.8099 155.08 74.6917 155.185C74.5767 155.287 74.5061 155.43 74.4799 155.614H75.7752ZM77.6822 154.929C77.7709 154.785 77.8858 154.672 78.027 154.59C78.1715 154.507 78.3356 154.466 78.5195 154.466V155.19H78.3373C78.1206 155.19 77.9564 155.241 77.8448 155.343C77.7364 155.445 77.6822 155.622 77.6822 155.875V157.234H76.9927V154.506H77.6822V154.929ZM82.5512 154.831C82.4724 154.686 82.3641 154.576 82.2262 154.501C82.0883 154.425 81.9274 154.388 81.7435 154.388C81.5399 154.388 81.3593 154.434 81.2017 154.525C81.0441 154.617 80.921 154.749 80.8323 154.919C80.7437 155.09 80.6993 155.287 80.6993 155.511C80.6993 155.74 80.7437 155.941 80.8323 156.111C80.9243 156.282 81.0507 156.413 81.2116 156.505C81.3725 156.597 81.5596 156.643 81.773 156.643C82.0357 156.643 82.2508 156.574 82.4183 156.436C82.5857 156.295 82.6957 156.1 82.7483 155.85H81.5662V155.323H83.4279V155.924C83.382 156.164 83.2835 156.386 83.1324 156.589C82.9814 156.793 82.786 156.957 82.5463 157.082C82.3099 157.203 82.0439 157.264 81.7484 157.264C81.4168 157.264 81.1163 157.19 80.8471 157.042C80.5811 156.891 80.371 156.683 80.2167 156.417C80.0656 156.151 79.9901 155.849 79.9901 155.511C79.9901 155.172 80.0656 154.87 80.2167 154.604C80.371 154.335 80.5811 154.127 80.8471 153.979C81.1163 153.828 81.4151 153.752 81.7435 153.752C82.131 153.752 82.4675 153.847 82.7532 154.038C83.0388 154.225 83.2359 154.489 83.3442 154.831H82.5512ZM84.6276 154.929C84.7163 154.785 84.8312 154.672 84.9724 154.59C85.1169 154.507 85.281 154.466 85.4649 154.466V155.19H85.2827C85.066 155.19 84.9018 155.241 84.7902 155.343C84.6818 155.445 84.6276 155.622 84.6276 155.875V157.234H83.9381V154.506H84.6276V154.929ZM87.141 157.279C86.8783 157.279 86.6419 157.221 86.4317 157.106C86.2216 156.988 86.0558 156.822 85.9343 156.609C85.8161 156.395 85.757 156.149 85.757 155.87C85.757 155.591 85.8177 155.345 85.9392 155.131C86.064 154.918 86.2331 154.754 86.4465 154.639C86.6599 154.521 86.898 154.461 87.1607 154.461C87.4234 154.461 87.6614 154.521 87.8748 154.639C88.0883 154.754 88.2557 154.918 88.3772 155.131C88.502 155.345 88.5644 155.591 88.5644 155.87C88.5644 156.149 88.5004 156.395 88.3723 156.609C88.2475 156.822 88.0768 156.988 87.8601 157.106C87.6466 157.221 87.4069 157.279 87.141 157.279ZM87.141 156.678C87.2658 156.678 87.3823 156.648 87.4907 156.589C87.6023 156.527 87.691 156.435 87.7566 156.313C87.8223 156.192 87.8551 156.044 87.8551 155.87C87.8551 155.611 87.7862 155.412 87.6483 155.274C87.5137 155.133 87.3478 155.062 87.1508 155.062C86.9538 155.062 86.788 155.133 86.6534 155.274C86.522 155.412 86.4564 155.611 86.4564 155.87C86.4564 156.129 86.5204 156.33 86.6485 156.471C86.7798 156.609 86.944 156.678 87.141 156.678ZM92.8528 154.506L92.0549 157.234H91.3112L90.8137 155.328L90.3163 157.234H89.5676L88.7648 154.506H89.4642L89.9469 156.584L90.469 154.506H91.1979L91.7101 156.579L92.1928 154.506H92.8528ZM94.0287 155.072V156.392C94.0287 156.484 94.05 156.551 94.0927 156.594C94.1387 156.633 94.2142 156.653 94.3193 156.653H94.6394V157.234H94.206C93.6248 157.234 93.3342 156.952 93.3342 156.387V155.072H93.0092V154.506H93.3342V153.831H94.0287V154.506H94.6394V155.072H94.0287ZM96.6721 154.466C96.8789 154.466 97.0628 154.512 97.2237 154.604C97.3846 154.693 97.5094 154.826 97.598 155.003C97.69 155.177 97.7359 155.387 97.7359 155.634V157.234H97.0464V155.727C97.0464 155.511 96.9922 155.345 96.8839 155.23C96.7755 155.112 96.6277 155.052 96.4406 155.052C96.2501 155.052 96.0991 155.112 95.9875 155.23C95.8791 155.345 95.8249 155.511 95.8249 155.727V157.234H95.1354V153.59H95.8249V154.846C95.9136 154.727 96.0318 154.635 96.1795 154.57C96.3273 154.501 96.4915 154.466 96.6721 154.466Z" fill="#151D48"/>
<path d="M61.6399 163.191C61.6399 162.912 61.7028 162.661 61.8287 162.44C61.9545 162.215 62.1256 162.04 62.3417 161.914C62.5606 161.788 62.8028 161.725 63.0682 161.725C63.3801 161.725 63.6524 161.801 63.885 161.951C64.1176 162.102 64.2872 162.315 64.3939 162.591H63.9465C63.8672 162.419 63.7523 162.286 63.6018 162.193C63.454 162.1 63.2762 162.054 63.0682 162.054C62.8684 162.054 62.6892 162.1 62.5305 162.193C62.3718 162.286 62.2473 162.419 62.157 162.591C62.0667 162.761 62.0216 162.961 62.0216 163.191C62.0216 163.418 62.0667 163.617 62.157 163.79C62.2473 163.96 62.3718 164.091 62.5305 164.184C62.6892 164.277 62.8684 164.323 63.0682 164.323C63.2762 164.323 63.454 164.278 63.6018 164.188C63.7523 164.095 63.8672 163.962 63.9465 163.79H64.3939C64.2872 164.063 64.1176 164.276 63.885 164.426C63.6524 164.574 63.3801 164.648 63.0682 164.648C62.8028 164.648 62.5606 164.586 62.3417 164.463C62.1256 164.337 61.9545 164.163 61.8287 163.942C61.7028 163.72 61.6399 163.47 61.6399 163.191ZM65.9309 164.66C65.7202 164.66 65.5286 164.612 65.3562 164.516C65.1866 164.421 65.0525 164.285 64.954 164.11C64.8582 163.932 64.8104 163.727 64.8104 163.494C64.8104 163.264 64.8596 163.062 64.9581 162.887C65.0594 162.709 65.1962 162.574 65.3685 162.481C65.5409 162.385 65.7338 162.337 65.9473 162.337C66.1607 162.337 66.3536 162.385 66.526 162.481C66.6984 162.574 66.8338 162.708 66.9323 162.883C67.0336 163.058 67.0842 163.262 67.0842 163.494C67.0842 163.727 67.0322 163.932 66.9282 164.11C66.827 164.285 66.6888 164.421 66.5137 164.516C66.3386 164.612 66.1443 164.66 65.9309 164.66ZM65.9309 164.332C66.0649 164.332 66.1908 164.3 66.3085 164.237C66.4261 164.174 66.5205 164.08 66.5917 163.954C66.6655 163.828 66.7025 163.675 66.7025 163.494C66.7025 163.314 66.6669 163.161 66.5958 163.035C66.5246 162.909 66.4316 162.816 66.3167 162.756C66.2017 162.693 66.0772 162.661 65.9432 162.661C65.8064 162.661 65.6805 162.693 65.5656 162.756C65.4534 162.816 65.3631 162.909 65.2947 163.035C65.2263 163.161 65.1921 163.314 65.1921 163.494C65.1921 163.678 65.2249 163.832 65.2906 163.958C65.359 164.084 65.4493 164.178 65.5615 164.241C65.6736 164.302 65.7968 164.332 65.9309 164.332ZM70.2801 162.333C70.4552 162.333 70.6112 162.37 70.748 162.444C70.8848 162.515 70.9929 162.623 71.0722 162.768C71.1516 162.913 71.1912 163.089 71.1912 163.297V164.623H70.8218V163.351C70.8218 163.126 70.7658 162.955 70.6536 162.838C70.5441 162.717 70.395 162.657 70.2062 162.657C70.0119 162.657 69.8573 162.72 69.7424 162.846C69.6275 162.969 69.57 163.148 69.57 163.384V164.623H69.2006V163.351C69.2006 163.126 69.1445 162.955 69.0323 162.838C68.9229 162.717 68.7738 162.657 68.585 162.657C68.3907 162.657 68.2361 162.72 68.1212 162.846C68.0062 162.969 67.9488 163.148 67.9488 163.384V164.623H67.5753V162.374H67.9488V162.698C68.0226 162.58 68.1212 162.49 68.2443 162.427C68.3702 162.364 68.5083 162.333 68.6588 162.333C68.8476 162.333 69.0145 162.375 69.1596 162.46C69.3046 162.545 69.4127 162.669 69.4838 162.834C69.5467 162.675 69.6507 162.552 69.7957 162.464C69.9408 162.377 70.1022 162.333 70.2801 162.333ZM74.5087 162.333C74.6838 162.333 74.8398 162.37 74.9766 162.444C75.1134 162.515 75.2215 162.623 75.3009 162.768C75.3802 162.913 75.4199 163.089 75.4199 163.297V164.623H75.0505V163.351C75.0505 163.126 74.9944 162.955 74.8822 162.838C74.7728 162.717 74.6236 162.657 74.4348 162.657C74.2406 162.657 74.086 162.72 73.971 162.846C73.8561 162.969 73.7987 163.148 73.7987 163.384V164.623H73.4293V163.351C73.4293 163.126 73.3732 162.955 73.261 162.838C73.1515 162.717 73.0024 162.657 72.8136 162.657C72.6193 162.657 72.4647 162.72 72.3498 162.846C72.2349 162.969 72.1774 163.148 72.1774 163.384V164.623H71.8039V162.374H72.1774V162.698C72.2513 162.58 72.3498 162.49 72.4729 162.427C72.5988 162.364 72.737 162.333 72.8875 162.333C73.0763 162.333 73.2432 162.375 73.3882 162.46C73.5332 162.545 73.6413 162.669 73.7125 162.834C73.7754 162.675 73.8794 162.552 74.0244 162.464C74.1694 162.377 74.3309 162.333 74.5087 162.333ZM78.0848 163.412C78.0848 163.483 78.0807 163.559 78.0724 163.638H76.2747C76.2884 163.86 76.3637 164.033 76.5005 164.159C76.64 164.282 76.8083 164.344 77.0053 164.344C77.1667 164.344 77.3008 164.307 77.4075 164.233C77.517 164.157 77.5936 164.055 77.6374 163.929H78.0396C77.9794 164.146 77.859 164.322 77.6784 164.459C77.4978 164.593 77.2735 164.66 77.0053 164.66C76.7919 164.66 76.6003 164.612 76.4307 164.516C76.2638 164.421 76.1324 164.285 76.0367 164.11C75.9409 163.932 75.893 163.727 75.893 163.494C75.893 163.262 75.9395 163.058 76.0326 162.883C76.1256 162.708 76.2556 162.574 76.4225 162.481C76.5921 162.385 76.7864 162.337 77.0053 162.337C77.2187 162.337 77.4075 162.383 77.5717 162.476C77.7359 162.569 77.8618 162.698 77.9493 162.862C78.0396 163.024 78.0848 163.207 78.0848 163.412ZM77.6989 163.334C77.6989 163.192 77.6675 163.07 77.6045 162.969C77.5416 162.865 77.4554 162.787 77.346 162.735C77.2393 162.68 77.1202 162.653 76.9889 162.653C76.8001 162.653 76.6386 162.713 76.5046 162.834C76.3732 162.954 76.298 163.121 76.2788 163.334H77.6989ZM78.9513 162.739C79.0169 162.611 79.11 162.511 79.2304 162.44C79.3535 162.368 79.5026 162.333 79.6777 162.333V162.719H79.5792C79.1606 162.719 78.9513 162.946 78.9513 163.4V164.623H78.5778V162.374H78.9513V162.739ZM79.9694 163.494C79.9694 163.262 80.0159 163.059 80.1089 162.887C80.2019 162.712 80.3305 162.576 80.4947 162.481C80.6616 162.385 80.8518 162.337 81.0652 162.337C81.3416 162.337 81.5687 162.404 81.7466 162.538C81.9271 162.672 82.0462 162.858 82.1036 163.096H81.7014C81.6631 162.959 81.5879 162.851 81.4757 162.772C81.3662 162.693 81.2294 162.653 81.0652 162.653C80.8518 162.653 80.6794 162.727 80.5481 162.875C80.4167 163.02 80.3511 163.226 80.3511 163.494C80.3511 163.765 80.4167 163.975 80.5481 164.122C80.6794 164.27 80.8518 164.344 81.0652 164.344C81.2294 164.344 81.3662 164.306 81.4757 164.229C81.5851 164.152 81.6604 164.043 81.7014 163.901H82.1036C82.0434 164.131 81.923 164.315 81.7424 164.455C81.5619 164.592 81.3361 164.66 81.0652 164.66C80.8518 164.66 80.6616 164.612 80.4947 164.516C80.3305 164.421 80.2019 164.285 80.1089 164.11C80.0159 163.935 79.9694 163.73 79.9694 163.494ZM82.7949 162.009C82.7238 162.009 82.6636 161.984 82.6143 161.935C82.5651 161.885 82.5404 161.825 82.5404 161.754C82.5404 161.683 82.5651 161.623 82.6143 161.573C82.6636 161.524 82.7238 161.5 82.7949 161.5C82.8633 161.5 82.9208 161.524 82.9673 161.573C83.0165 161.623 83.0412 161.683 83.0412 161.754C83.0412 161.825 83.0165 161.885 82.9673 161.935C82.9208 161.984 82.8633 162.009 82.7949 162.009ZM82.9755 162.374V164.623H82.602V162.374H82.9755ZM83.4725 163.49C83.4725 163.26 83.519 163.059 83.6121 162.887C83.7051 162.712 83.8323 162.576 83.9938 162.481C84.1579 162.385 84.3399 162.337 84.5397 162.337C84.7367 162.337 84.9077 162.379 85.0527 162.464C85.1977 162.549 85.3058 162.656 85.377 162.784V162.374H85.7546V164.623H85.377V164.204C85.3031 164.336 85.1923 164.445 85.0445 164.533C84.8995 164.618 84.7298 164.66 84.5356 164.66C84.3358 164.66 84.1552 164.611 83.9938 164.512C83.8323 164.414 83.7051 164.276 83.6121 164.098C83.519 163.92 83.4725 163.717 83.4725 163.49ZM85.377 163.494C85.377 163.325 85.3428 163.177 85.2743 163.051C85.2059 162.925 85.1129 162.829 84.9952 162.764C84.8803 162.695 84.7531 162.661 84.6135 162.661C84.474 162.661 84.3468 162.694 84.2318 162.76C84.1169 162.825 84.0252 162.921 83.9568 163.047C83.8884 163.173 83.8542 163.321 83.8542 163.49C83.8542 163.663 83.8884 163.813 83.9568 163.942C84.0252 164.068 84.1169 164.165 84.2318 164.233C84.3468 164.299 84.474 164.332 84.6135 164.332C84.7531 164.332 84.8803 164.299 84.9952 164.233C85.1129 164.165 85.2059 164.068 85.2743 163.942C85.3428 163.813 85.377 163.664 85.377 163.494ZM86.7592 161.586V164.623H86.3857V161.586H86.7592Z" fill="#737791"/>
<g clip-path="url(#clip1_1203_7)">
<rect x="42.5835" y="151.824" width="14.7758" height="14.7758" rx="2.46264" fill="#FFF4DE"/>
<mask id="mask3_1203_7" style="mask-type:luminance" maskUnits="userSpaceOnUse" x="46" y="155" width="8" height="8">
<rect x="46.4248" y="155.666" width="7.09239" height="7.09239" fill="white"/>
</mask>
<g mask="url(#mask3_1203_7)">
<path fill-rule="evenodd" clip-rule="evenodd" d="M47.0164 157.779C47.0165 157.103 47.5646 156.555 48.2407 156.555H51.7018C52.3781 156.555 52.9258 157.103 52.9258 157.779M52.9258 157.779L52.9264 158.578C52.9265 158.636 52.9031 158.693 52.8616 158.734C52.82 158.776 52.7636 158.799 52.7048 158.799C52.4606 158.799 52.2645 158.996 52.2645 159.239C52.2645 159.483 52.4607 159.679 52.7048 159.679C52.8272 159.679 52.9264 159.779 52.9264 159.901V160.699C52.9264 161.375 52.3787 161.923 51.7021 161.923H48.2401C47.5639 161.923 47.0161 161.375 47.0161 160.699V159.901C47.0161 159.779 47.1153 159.679 47.2378 159.679C47.4815 159.679 47.6778 159.483 47.6778 159.239C47.6778 159.007 47.4932 158.825 47.2378 158.825C47.179 158.825 47.1226 158.802 47.081 158.76C47.0394 158.719 47.0161 158.662 47.0161 158.603L47.0164 157.779C47.0164 157.779 47.0164 157.779 47.0164 157.779M47.4597 157.779L47.4595 158.408C47.834 158.5 48.121 158.819 48.121 159.239C48.121 159.651 47.8403 159.997 47.4594 160.095V160.699C47.4594 161.13 47.8088 161.48 48.2401 161.48H51.7021C52.1338 161.48 52.4832 161.13 52.4832 160.699V160.095C52.102 159.997 51.8212 159.652 51.8212 159.239C51.8212 158.827 52.102 158.482 52.483 158.384L52.4826 157.779C52.4826 157.348 52.1331 156.998 51.7018 156.998H48.2407C47.8093 156.998 47.4597 157.348 47.4597 157.779ZM47.0164 157.779L52.9258 157.779Z" fill="#FFA800"/>
<path fill-rule="evenodd" clip-rule="evenodd" d="M50.2287 158.168L50.4343 158.585L50.8948 158.652C51.1289 158.686 51.2242 158.975 51.0535 159.141L51.0531 159.142L50.7204 159.466L50.799 159.924C50.8395 160.16 50.5914 160.336 50.3827 160.227L50.382 160.226L49.971 160.01L49.5592 160.227C49.3505 160.336 49.1024 160.16 49.1428 159.924L49.2215 159.466L48.889 159.142L48.8887 159.141C48.718 158.975 48.8133 158.686 49.0474 158.652L49.0481 158.652L49.5076 158.585L49.7134 158.168L49.7137 158.167C49.8188 157.956 50.1229 157.953 50.2286 158.168C50.2286 158.168 50.2287 158.168 50.2287 158.168ZM49.8535 158.885C49.8212 158.951 49.7588 158.996 49.6867 159.007L49.4248 159.045L49.6143 159.229C49.6666 159.28 49.6905 159.354 49.6781 159.426L49.6333 159.687L49.8678 159.564C49.9324 159.53 50.0095 159.53 50.0741 159.564L50.3086 159.687L50.2638 159.426C50.2514 159.354 50.2753 159.28 50.3276 159.229L50.5172 159.045L50.2553 159.007C50.1831 158.996 50.1207 158.951 50.0884 158.885L49.971 158.648L49.8535 158.885Z" fill="#FFA800"/>
</g>
</g>
</g>
<defs>
<filter id="filter0_d_1203_7" x="0.193716" y="0.544502" width="222.729" height="213.613" filterUnits="userSpaceOnUse" color-interpolation-filters="sRGB">
<feFlood flood-opacity="0" result="BackgroundImageFix"/>
<feColorMatrix in="SourceAlpha" type="matrix" values="0 0 0 0 0 0 0 0 0 0 0 0 0 0 0 0 0 0 127 0" result="hardAlpha"/>
<feOffset dy="3.35079"/>
<feGaussianBlur stdDeviation="13.4031"/>
<feComposite in2="hardAlpha" operator="out"/>
<feColorMatrix type="matrix" values="0 0 0 0 0.156863 0 0 0 0 0.356863 0 0 0 0 0.321569 0 0 0 0.3 0"/>
<feBlend mode="normal" in2="BackgroundImageFix" result="effect1_dropShadow_1203_7"/>
<feBlend mode="normal" in="SourceGraphic" in2="effect1_dropShadow_1203_7" result="shape"/>
</filter>
<filter id="filter1_d_1203_7" x="17.8832" y="16.7066" width="187.35" height="178.234" filterUnits="userSpaceOnUse" color-interpolation-filters="sRGB">
<feFlood flood-opacity="0" result="BackgroundImageFix"/>
<feColorMatrix in="SourceAlpha" type="matrix" values="0 0 0 0 0 0 0 0 0 0 0 0 0 0 0 0 0 0 127 0" result="hardAlpha"/>
<feOffset dy="1.82336"/>
<feGaussianBlur stdDeviation="4.5584"/>
<feColorMatrix type="matrix" values="0 0 0 0 0.93198 0 0 0 0 0.93198 0 0 0 0 0.93198 0 0 0 0.501967 0"/>
<feBlend mode="normal" in2="BackgroundImageFix" result="effect1_dropShadow_1203_7"/>
<feBlend mode="normal" in="SourceGraphic" in2="effect1_dropShadow_1203_7" result="shape"/>
</filter>
<clipPath id="clip0_1203_7">
<rect width="14.7758" height="14.7758" fill="white" transform="translate(42.5835 130.889)"/>
</clipPath>
<clipPath id="clip1_1203_7">
<rect width="14.7758" height="14.7758" fill="white" transform="translate(42.5835 151.824)"/>
</clipPath>
</defs>
</svg>
